<svg id="blackjack_x5F_money" enable-background="new 0 0 300 300" height="512" viewBox="0 0 300 300" width="512" xmlns="http://www.w3.org/2000/svg"><circle cx="122" cy="121.091" fill="#efefd2" r="92"/><g fill="#4c241d"><path d="m44 97.091c-7.719 0-14-6.281-14-14s6.281-14 14-14 14 6.281 14 14-6.281 14-14 14zm0-20c-3.309 0-6 2.691-6 6s2.691 6 6 6 6-2.691 6-6-2.691-6-6-6z"/><path d="m252 153.091c-7.719 0-14-6.281-14-14s6.281-14 14-14 14 6.281 14 14-6.281 14-14 14zm0-20c-3.309 0-6 2.691-6 6s2.691 6 6 6 6-2.691 6-6-2.691-6-6-6z"/><circle cx="52" cy="255.091" r="4.529"/><circle cx="164" cy="31.091" r="4.529"/><path d="m34.652 210.439c-1.023 0-2.047-.391-2.828-1.172-1.562-1.562-1.562-4.094 0-5.656l14.695-14.695c1.562-1.562 4.094-1.562 5.656 0s1.562 4.094 0 5.656l-14.695 14.695c-.781.781-1.804 1.172-2.828 1.172z"/><path d="m49.348 210.439c-1.023 0-2.047-.391-2.828-1.172l-14.695-14.695c-1.562-1.562-1.562-4.094 0-5.656s4.094-1.562 5.656 0l14.695 14.695c1.562 1.562 1.562 4.094 0 5.656-.781.781-1.805 1.172-2.828 1.172z"/><path d="m242.652 50.439c-1.023 0-2.047-.391-2.828-1.172-1.562-1.562-1.562-4.094 0-5.656l14.695-14.695c1.562-1.562 4.094-1.562 5.656 0s1.562 4.094 0 5.656l-14.695 14.695c-.781.781-1.804 1.172-2.828 1.172z"/><path d="m257.348 50.439c-1.023 0-2.047-.391-2.828-1.172l-14.695-14.695c-1.562-1.562-1.562-4.094 0-5.656s4.094-1.562 5.656 0l14.695 14.695c1.562 1.562 1.562 4.094 0 5.656-.781.781-1.805 1.172-2.828 1.172z"/></g><path d="m195.056 241.091h-106.112c-6.044 0-10.944-4.9-10.944-10.944v-158.112c0-6.044 4.9-10.944 10.944-10.944h106.112c6.044 0 10.944 4.9 10.944 10.944v158.112c0 6.044-4.9 10.944-10.944 10.944z" fill="#fff"/><path d="m195.055 245.091h-106.11c-8.242 0-14.945-6.703-14.945-14.943v-158.114c0-8.24 6.703-14.943 14.945-14.943h106.109c8.242 0 14.945 6.703 14.945 14.943v158.113c.001 8.241-6.702 14.944-14.944 14.944zm-106.11-180c-3.828 0-6.945 3.115-6.945 6.943v158.113c0 3.828 3.117 6.943 6.945 6.943h106.109c3.828 0 6.945-3.115 6.945-6.943v-158.113c0-3.828-3.117-6.943-6.945-6.943z" fill="#4c241d"/><path d="m178 197.7h88v56.522c0 8.404-19.699 15.217-44 15.217s-44-6.813-44-15.217z" fill="#ffec95"/><path d="m222 273.439c-23.852 0-48-6.602-48-19.217v-56.522c0-2.209 1.789-4 4-4h88c2.211 0 4 1.791 4 4v56.521c0 12.616-24.148 19.218-48 19.218zm-40-71.739v52.521c0 3.807 14.117 11.217 40 11.217s40-7.41 40-11.217v-52.521z" fill="#4c241d"/><ellipse cx="222" cy="197.7" fill="#ffce56" rx="44" ry="15.217"/><path d="m222 216.917c-23.852 0-48-6.602-48-19.217 0-12.617 24.148-19.219 48-19.219s48 6.602 48 19.219c0 12.616-24.148 19.217-48 19.217zm0-30.435c-25.883 0-40 7.41-40 11.219 0 3.807 14.117 11.217 40 11.217s40-7.41 40-11.217c0-3.809-14.117-11.219-40-11.219z" fill="#4c241d"/><path d="m222 235.353c-23.852 0-48-6.602-48-19.219 0-2.209 1.789-4 4-4s4 1.791 4 4c0 3.809 14.117 11.219 40 11.219s40-7.41 40-11.219c0-2.209 1.789-4 4-4s4 1.791 4 4c0 12.617-24.148 19.219-48 19.219z" fill="#4c241d"/><path d="m222 255.353c-23.852 0-48-6.602-48-19.219 0-2.209 1.789-4 4-4s4 1.791 4 4c0 3.809 14.117 11.219 40 11.219s40-7.41 40-11.219c0-2.209 1.789-4 4-4s4 1.791 4 4c0 12.617-24.148 19.219-48 19.219z" fill="#4c241d"/><circle cx="95.573" cy="79.548" fill="#4c241d" r="5.806"/><path d="m142.352 195.851c-2.211 0-4-1.791-4-4v-23.775c0-2.209 1.789-4 4-4s4 1.791 4 4v23.775c0 2.209-1.79 4-4 4z" fill="#4c241d"/><path d="m141.91 123.894s-28.09 29.722-28.09 37.739 6.987 14.515 15.606 14.515c5.129 0 9.639-2.332 12.484-5.885 2.845 3.553 7.356 5.885 12.484 5.885 8.618 0 15.605-6.498 15.605-14.515.001-8.016-28.089-37.739-28.089-37.739z" fill="#f53e28"/><path d="m154.395 180.148c-4.637 0-9.004-1.523-12.484-4.277-3.48 2.754-7.848 4.277-12.484 4.277-10.809 0-19.605-8.307-19.605-18.516 0-8.67 20.41-31.201 29.184-40.486 1.508-1.598 4.305-1.598 5.812 0 8.772 9.285 29.182 31.816 29.182 40.486 0 10.209-8.797 18.516-19.605 18.516zm-12.485-13.885c1.215 0 2.363.553 3.121 1.5 2.23 2.787 5.645 4.385 9.363 4.385 6.398 0 11.605-4.717 11.605-10.516-.211-3.77-12.129-18.863-24.09-31.871-11.961 13.008-23.879 28.104-24.09 31.887 0 5.783 5.207 10.5 11.605 10.5 3.719 0 7.133-1.598 9.363-4.385.76-.947 1.908-1.5 3.123-1.5z" fill="#4c241d"/></svg>